<svg width="48px" height="48px" viewBox="0 0 48 48" version="1.1" xmlns="http://www.w3.org/2000/svg" xmlns:xlink="http://www.w3.org/1999/xlink">
    <!-- Generator: Sketch 52.6 (67491) - http://www.bohemiancoding.com/sketch -->
    <title>arrow copy 3</title>
    <desc>Created with Sketch.</desc>
    <g id="arrow-copy-3" stroke="none" stroke-width="1" fill="none" fill-rule="evenodd">
        <g id="Group-Copy">
            <polygon id="Shape" points="0 0 48 0 48 48 0 48"></polygon>
        </g>
        <path d="M26.7446823,39.4097928 C27.5174929,40.1967357 28.7738056,40.1967357 29.5485977,39.4097928 L43.2194193,25.5245762 C43.6315849,25.1039341 43.8079443,24.5464323 43.7802024,23.9989937 C43.8079443,23.4515551 43.6315849,22.8940533 43.2194193,22.4754238 L29.5485977,8.59020724 C28.7738056,7.80326425 27.5174929,7.80326425 26.7446823,8.59020724 C25.9718717,9.37312494 25.9718717,10.6491399 26.7446823,11.4360829 L37.1340311,21.9863518 L6.98156567,21.9863518 C5.88575985,21.9863518 5,22.8880153 5,23.9989937 C5,25.1119847 5.88575985,26.0116356 6.98156567,26.0116356 L37.1340311,26.0116356 L26.7446823,36.5639171 C25.9718717,37.3488474 25.9718717,38.6248624 26.7446823,39.4097928 Z" id="Path" fill="currentColor" transform="translate(24.391510, 24.000000) rotate(-180.000000) translate(-24.391510, -24.000000) "></path>
    </g>
</svg>